<svg width="45" height="45" viewBox="0 0 45 45" fill="none" xmlns="http://www.w3.org/2000/svg">
<path d="M7.05001 6.9375L4.01251 9.15L8.30626 15C9.44528 14.4017 10.6547 13.9482 11.9063 13.65L7.05001 6.9375ZM20.625 16.875V20.625H33.75V21.1688L24.375 23.8312V29.0625C24.375 30.7313 23.8802 32.3626 22.953 33.7501C22.0259 35.1377 20.7081 36.2191 19.1664 36.8577C17.6246 37.4963 15.9281 37.6634 14.2914 37.3379C12.6547 37.0123 11.1513 36.2087 9.97129 35.0287C8.79129 33.8487 7.98769 32.3453 7.66213 30.7086C7.33657 29.0719 7.50366 27.3754 8.14227 25.8336C8.78089 24.2919 9.86234 22.9741 11.2499 22.047C12.6374 21.1199 14.2687 20.625 15.9375 20.625H16.875V16.875H15.9375C13.527 16.875 11.1707 17.5898 9.16649 18.929C7.16227 20.2681 5.60017 22.1716 4.67772 24.3985C3.75528 26.6255 3.51393 29.076 3.98418 31.4402C4.45444 33.8043 5.61519 35.9759 7.31964 37.6804C9.02409 39.3848 11.1957 40.5456 13.5598 41.0158C15.924 41.4861 18.3745 41.2447 20.6015 40.3223C22.8284 39.3998 24.7319 37.8377 26.071 35.8335C27.4102 33.8293 28.125 31.473 28.125 29.0625V26.0812L41.25 22.5V16.875H20.625ZM30.45 6.9375L25.9688 13.125H30.6L33.4875 9.15L30.45 6.9375ZM16.875 3.75V13.125H20.625V3.75H16.875Z" fill="#B04646"/>
</svg>
