<svg width="39" height="48" viewBox="0 0 39 48" fill="none" xmlns="http://www.w3.org/2000/svg">
<path d="M18.5625 47.25C20.4265 47.25 21.9375 45.739 21.9375 43.875C21.9375 42.011 20.4265 40.5 18.5625 40.5C16.6985 40.5 15.1875 42.011 15.1875 43.875C15.1875 45.739 16.6985 47.25 18.5625 47.25Z" fill="#B04646"/>
<path d="M3.375 31.3639L12.8014 21.9375L15.1875 24.3236L5.76112 33.75L3.375 31.3639Z" fill="#B04646"/>
<path d="M37.125 24.6105L22.6361 10.125H0V13.5H21.2389L26.3014 18.5625L0 44.8639L2.38613 47.25L28.6875 20.9503L34.7355 27L28.6875 33.0514L31.0736 35.4375L37.125 29.3895C37.7581 28.7554 38.1137 27.896 38.1137 27C38.1137 26.104 37.7581 25.2446 37.125 24.6105Z" fill="#B04646"/>
<path d="M31.2188 11.8125C30.0506 11.8125 28.9087 11.4661 27.9374 10.8171C26.9661 10.1681 26.2091 9.2457 25.7621 8.16648C25.3151 7.08725 25.1981 5.8997 25.426 4.754C25.6539 3.6083 26.2164 2.55591 27.0424 1.7299C27.8684 0.9039 28.9208 0.341384 30.0665 0.11349C31.2122 -0.114404 32.3997 0.0025591 33.479 0.449589C34.5582 0.896619 35.4806 1.65364 36.1296 2.62492C36.7786 3.59619 37.125 4.73811 37.125 5.90625C37.1232 7.47214 36.5004 8.97338 35.3931 10.0806C34.2859 11.1879 32.7846 11.8107 31.2188 11.8125ZM31.2188 3.375C30.7181 3.375 30.2287 3.52346 29.8125 3.8016C29.3962 4.07973 29.0718 4.47506 28.8802 4.93759C28.6886 5.40011 28.6385 5.90906 28.7361 6.40008C28.8338 6.89109 29.0749 7.34212 29.4289 7.69612C29.7829 8.05012 30.2339 8.2912 30.7249 8.38887C31.2159 8.48654 31.7249 8.43641 32.1874 8.24482C32.6499 8.05324 33.0453 7.7288 33.3234 7.31254C33.6015 6.89628 33.75 6.40689 33.75 5.90625C33.7491 5.2352 33.4821 4.59188 33.0076 4.11738C32.5331 3.64287 31.8898 3.3759 31.2188 3.375Z" fill="#B04646"/>
</svg>
