<svg width="42" height="42" viewBox="0 0 42 42" fill="none" xmlns="http://www.w3.org/2000/svg">
<path d="M41.95 20.9651C41.95 20.4759 42.0899 13.3478 37.8919 8.73544C37.682 8.31614 36.8424 6.63894 33.9737 4.61231C32.0846 3.14476 30.1256 2.09651 29.9157 1.95674C29.7057 1.81697 26.2074 0 22.0094 0C21.6595 0 21.3797 -6.76875e-08 21.0298 0.0698835C17.8113 -6.76875e-08 14.8727 0.838602 12.7037 1.81697C10.4648 2.79534 8.99546 3.77371 8.85552 3.91348C6.47664 5.24126 1.92877 10.5524 1.57893 13.4176C0.109621 15.2346 -1.07982 23.5508 1.57893 28.5824C3.46805 35.5707 10.4648 39.0649 11.0245 39.3444C11.3743 39.5541 15.1526 41.9301 19.8404 41.9301H20.4701C20.8899 42 21.2397 42 21.6595 42C26.6972 42 34.2536 38.4359 35.7929 35.6406C40.1309 32.426 42.3698 24.3195 41.95 20.9651ZM11.0945 31.5175C9.06542 28.3028 7.94595 24.0399 7.66608 23.0616C8.29578 22.0832 11.4443 17.4709 13.1935 16.0732C14.173 16.2829 18.441 17.0516 22.4292 17.7504C22.9189 19.0782 25.1579 24.7388 25.7876 26.975C25.0879 27.8136 22.3592 30.9584 19.7004 33.4043C16.8318 33.4742 12.004 31.797 11.0945 31.5175ZM36.2827 8.80533C36.2827 9.08486 36.2127 10.203 35.653 11.5308C34.6035 10.9717 31.9447 9.85358 28.2364 9.64393C27.6767 8.80533 25.5777 5.9401 22.2892 3.98336C22.709 3.07488 23.3387 2.02662 23.7585 1.6772C23.8985 1.6772 24.0384 1.60732 24.3183 1.60732C26.0675 1.60732 29.146 2.79534 29.4259 2.86522C29.7057 3.00499 35.2332 5.9401 36.2827 8.80533ZM6.89644 22.3627C4.51755 21.9434 3.04824 21.2446 2.62844 20.9651C1.71887 17.7504 2.48851 14.2562 2.55847 13.7671C3.46805 12.2296 5.9169 8.17637 7.59611 7.40765C9.27532 7.05824 11.4443 7.47754 12.2839 7.68719C12.2139 8.80532 12.074 11.9501 12.4938 15.3045C10.6747 16.8419 7.66608 21.2446 6.89644 22.3627ZM20.8199 1.04825C21.3797 1.11814 22.1493 1.18802 22.709 1.39767C22.1493 2.09651 21.5896 3.14476 21.3797 3.70383C20.2602 3.91348 16.1321 4.6822 12.8437 6.7787C12.2139 6.63894 10.1849 6.14975 8.29578 6.28952C8.78555 5.38103 9.48523 4.75208 9.55519 4.6822C9.76509 4.47255 14.7328 0.978369 20.8199 1.04825ZM34.1837 27.6739C33.344 27.6739 30.1955 27.4642 26.7671 26.6256C26.1374 24.3195 23.8985 18.6589 23.4087 17.3311C25.5777 14.2562 27.6767 11.391 28.2364 10.5524C32.2246 10.8319 35.0233 12.2995 35.583 12.579C37.8919 16.2829 38.3817 20.0566 38.4516 20.6855C37.1922 24.5291 34.8134 27.1148 34.1837 27.6739ZM1.2291 18.5191C1.29906 19.4276 1.439 20.3361 1.71887 21.2446C1.50896 21.8735 1.29906 22.5025 1.2291 23.1314C1.01919 21.5241 1.01919 19.9168 1.2291 18.5191ZM11.5842 38.4359L11.3044 38.8552L11.5842 38.4359C9.83506 37.5973 8.50568 35.6406 7.94595 34.8719C8.99546 33.8236 10.3248 32.8453 10.8146 32.4958C11.9341 32.9151 16.6219 34.4526 19.6305 34.4526C20.1202 35.1514 21.7995 37.2479 23.8285 38.9251C22.5691 40.183 20.7499 40.7421 20.4001 40.8819C15.6423 41.0216 11.5842 38.4359 11.5842 38.4359ZM22.9889 40.812C23.6186 40.4626 24.3183 39.9734 24.878 39.3444C25.7876 39.2047 29.7057 38.5757 33.2041 35.99C33.414 35.99 33.8338 36.0599 34.2536 36.0599C32.0846 38.0865 26.9071 40.3927 22.9889 40.812ZM33.7638 34.9418C35.0233 31.6572 34.9533 29.1414 34.8833 28.3727C35.583 27.6739 37.9619 25.1581 39.2913 21.3145C39.9909 21.4542 40.4807 21.594 40.6906 21.7338C40.7606 22.0133 40.9005 22.6423 40.8305 23.6206C40.2708 27.1148 38.4516 32.426 35.1632 34.7321C34.8134 34.9418 34.2536 35.0117 33.7638 34.9418Z" fill="#B04646"/>
</svg>
