<svg width="51" height="51" viewBox="0 0 51 51" fill="none" xmlns="http://www.w3.org/2000/svg">
<path d="M25.5 12.3994L25.0011 12.5508L5.07924 19.2254L0.549805 20.7188L3.18746 21.5635V35.5088C2.23599 36.0618 1.59371 37.0707 1.59371 38.25C1.59371 39.0954 1.92954 39.9062 2.52731 40.5039C3.12508 41.1017 3.93583 41.4375 4.78121 41.4375C5.62659 41.4375 6.43734 41.1017 7.03511 40.5039C7.63289 39.9062 7.96871 39.0954 7.96871 38.25C7.96871 37.0707 7.32643 36.0618 6.37496 35.5088V22.6632L9.56246 23.7071V31.875C9.56246 33.1819 10.3593 34.2657 11.306 35.0147C12.2527 35.759 13.4289 36.2849 14.841 36.7567C17.6683 37.697 21.3945 38.25 25.5 38.25C29.6055 38.25 33.3316 37.6986 36.159 36.7551C37.571 36.2849 38.7472 35.759 39.6939 35.0131C40.6406 34.2657 41.4375 33.1819 41.4375 31.875V23.7071L45.9207 22.2121L50.4501 20.7188L45.9191 19.2239L25.9972 12.5508L25.5 12.3994ZM25.5 15.7383L40.4414 20.7188L25.5 25.6993L10.5586 20.7188L25.5 15.7383ZM12.75 24.8036L25.0027 28.8868L25.5 29.0366L25.9988 28.8852L38.25 24.802V31.875C38.25 31.891 38.2563 32.0758 37.7511 32.4727C37.2475 32.8711 36.3438 33.3732 35.1613 33.7684C32.7993 34.5541 29.317 35.0625 25.5 35.0625C21.6829 35.0625 18.2006 34.5557 15.8371 33.7668C14.6577 33.3732 13.7524 32.8695 13.2488 32.4727C12.742 32.0743 12.75 31.891 12.75 31.875V24.802V24.8036Z" fill="#B04646"/>
</svg>
