<svg width="355" height="218" viewBox="0 0 355 218" fill="none" xmlns="http://www.w3.org/2000/svg">
<g filter="url(#filter0_d)">
<path d="M225.296 53.9869C225.296 80.4893 203.897 101.974 177.5 101.974C151.103 101.974 129.704 80.4893 129.704 53.9869C129.704 27.4845 151.103 6 177.5 6C203.897 6 225.296 27.4845 225.296 53.9869Z" fill="white"/>
<path d="M10 86.4105H345V204H10V86.4105Z" fill="white"/>
</g>
<path d="M198.95 52.9651C198.95 52.4759 199.09 45.3478 194.892 40.7354C194.682 40.3161 193.842 38.6389 190.974 36.6123C189.085 35.1448 187.126 34.0965 186.916 33.9567C186.706 33.817 183.207 32 179.009 32C178.66 32 178.38 32 178.03 32.0699C174.811 32 171.873 32.8386 169.704 33.817C167.465 34.7953 165.995 35.7737 165.856 35.9135C163.477 37.2413 158.929 42.5524 158.579 45.4176C157.11 47.2346 155.92 55.5508 158.579 60.5824C160.468 67.5707 167.465 71.0649 168.025 71.3444C168.374 71.5541 172.153 73.9301 176.84 73.9301H177.47C177.89 74 178.24 74 178.66 74C183.697 74 191.254 70.4359 192.793 67.6406C197.131 64.426 199.37 56.3195 198.95 52.9651ZM168.094 63.5175C166.065 60.3028 164.946 56.0399 164.666 55.0616C165.296 54.0832 168.444 49.4709 170.193 48.0732C171.173 48.2829 175.441 49.0516 179.429 49.7504C179.919 51.0782 182.158 56.7388 182.788 58.975C182.088 59.8136 179.359 62.9584 176.7 65.4043C173.832 65.4742 169.004 63.797 168.094 63.5175ZM193.283 40.8053C193.283 41.0849 193.213 42.203 192.653 43.5308C191.603 42.9717 188.945 41.8536 185.236 41.6439C184.677 40.8053 182.578 37.9401 179.289 35.9834C179.709 35.0749 180.339 34.0266 180.759 33.6772C180.898 33.6772 181.038 33.6073 181.318 33.6073C183.067 33.6073 186.146 34.7953 186.426 34.8652C186.706 35.005 192.233 37.9401 193.283 40.8053ZM163.896 54.3627C161.518 53.9434 160.048 53.2446 159.628 52.9651C158.719 49.7504 159.489 46.2562 159.558 45.7671C160.468 44.2296 162.917 40.1764 164.596 39.4077C166.275 39.0582 168.444 39.4775 169.284 39.6872C169.214 40.8053 169.074 43.9501 169.494 47.3045C167.675 48.8419 164.666 53.2446 163.896 54.3627ZM177.82 33.0483C178.38 33.1181 179.149 33.188 179.709 33.3977C179.149 34.0965 178.59 35.1448 178.38 35.7038C177.26 35.9135 173.132 36.6822 169.844 38.7787C169.214 38.6389 167.185 38.1498 165.296 38.2895C165.786 37.381 166.485 36.7521 166.555 36.6822C166.765 36.4725 171.733 32.9784 177.82 33.0483ZM191.184 59.6739C190.344 59.6739 187.196 59.4642 183.767 58.6256C183.137 56.3195 180.898 50.6589 180.409 49.3311C182.578 46.2562 184.677 43.391 185.236 42.5524C189.225 42.8319 192.023 44.2995 192.583 44.579C194.892 48.2829 195.382 52.0566 195.452 52.6855C194.192 56.5291 191.813 59.1148 191.184 59.6739ZM158.229 50.5191C158.299 51.4276 158.439 52.3361 158.719 53.2446C158.509 53.8735 158.299 54.5025 158.229 55.1314C158.019 53.5241 158.019 51.9168 158.229 50.5191ZM168.584 70.4359L168.304 70.8552L168.584 70.4359C166.835 69.5973 165.506 67.6406 164.946 66.8719C165.995 65.8236 167.325 64.8453 167.815 64.4958C168.934 64.9151 173.622 66.4526 176.63 66.4526C177.12 67.1514 178.799 69.2479 180.829 70.9251C179.569 72.183 177.75 72.7421 177.4 72.8819C172.642 73.0216 168.584 70.4359 168.584 70.4359ZM179.989 72.812C180.619 72.4626 181.318 71.9734 181.878 71.3444C182.788 71.2047 186.706 70.5757 190.204 67.99C190.414 67.99 190.834 68.0599 191.254 68.0599C189.085 70.0865 183.907 72.3927 179.989 72.812ZM190.764 66.9418C192.023 63.6572 191.953 61.1414 191.883 60.3727C192.583 59.6739 194.962 57.1581 196.291 53.3145C196.991 53.4542 197.481 53.594 197.691 53.7338C197.761 54.0133 197.901 54.6423 197.831 55.6206C197.271 59.1148 195.452 64.426 192.163 66.7321C191.813 66.9418 191.254 67.0117 190.764 66.9418Z" fill="#B04646"/>
<defs>
<filter id="filter0_d" x="0" y="0" width="355" height="218" filterUnits="userSpaceOnUse" color-interpolation-filters="sRGB">
<feFlood flood-opacity="0" result="BackgroundImageFix"/>
<feColorMatrix in="SourceAlpha" type="matrix" values="0 0 0 0 0 0 0 0 0 0 0 0 0 0 0 0 0 0 127 0"/>
<feOffset dy="4"/>
<feGaussianBlur stdDeviation="5"/>
<feColorMatrix type="matrix" values="0 0 0 0 0 0 0 0 0 0 0 0 0 0 0 0 0 0 0.25 0"/>
<feBlend mode="normal" in2="BackgroundImageFix" result="effect1_dropShadow"/>
<feBlend mode="normal" in="SourceGraphic" in2="effect1_dropShadow" result="shape"/>
</filter>
</defs>
</svg>
