<svg width="54" height="54" viewBox="0 0 54 54" fill="none" xmlns="http://www.w3.org/2000/svg">
<path d="M43.875 50.625H10.125C10.125 50.625 6.75 50.5125 6.75 41.625H47.25C47.25 50.5125 43.875 50.625 43.875 50.625Z" fill="#B04646"/>
<path d="M9 3.375H45V41.625H9V3.375Z" fill="#F8F8C9"/>
<path d="M20.25 16.875H38.25V19.125H20.25V16.875Z" fill="#B04646"/>
<path d="M20.25 21.375H38.25V23.625H20.25V21.375Z" fill="#B04646"/>
<path d="M20.25 25.875H38.25V28.125H20.25V25.875Z" fill="#B04646"/>
<path d="M20.25 30.375H38.25V32.625H20.25V30.375Z" fill="#B04646"/>
<path d="M20.25 34.875H38.25V37.125H20.25V34.875Z" fill="#B04646"/>
<path d="M15.75 16.875H18V19.125H15.75V16.875Z" fill="#B04646"/>
<path d="M15.75 21.375H18V23.625H15.75V21.375Z" fill="#B04646"/>
<path d="M15.75 25.875H18V28.125H15.75V25.875Z" fill="#B04646"/>
<path d="M15.75 30.375H18V32.625H15.75V30.375Z" fill="#B04646"/>
<path d="M15.75 34.875H18V37.125H15.75V34.875Z" fill="#B04646"/>
</svg>
