<svg width="54" height="54" viewBox="0 0 54 54" fill="none" xmlns="http://www.w3.org/2000/svg">
<path opacity="0.3" d="M25.5147 21.96L22.3422 18.765C20.2047 16.65 17.3922 15.48 14.3772 15.48C12.9597 15.48 11.5647 15.75 10.2822 16.245L12.6222 18.585H17.7522V23.4C18.6522 23.9175 19.6872 24.1875 20.7447 24.1875C22.3872 24.1875 23.9172 23.5575 25.0647 22.3875L25.5147 21.96Z" fill="#E8E84C"/>
<path opacity="0.3" d="M24.75 14.895L38.25 28.3275V31.5H35.0775L28.71 25.1325L28.26 25.5825C27.225 26.6175 26.0325 27.3825 24.75 27.9V33.75H38.25V38.25C38.25 39.4875 39.2625 40.5 40.5 40.5C41.7375 40.5 42.75 39.4875 42.75 38.25V13.5H24.75V14.895Z" fill="#E8E84C"/>
<path d="M20.2497 9V12.105C18.3822 11.3625 16.3797 10.98 14.3772 10.98C10.3497 10.98 6.32225 12.51 3.23975 15.5925L10.7322 23.085H13.2297V25.5825C15.1647 27.5175 17.6847 28.53 20.2272 28.6425V33.75H13.4997V40.5C13.4997 42.975 15.5247 45 17.9997 45H40.4997C44.2347 45 47.2497 41.985 47.2497 38.25V9H20.2497ZM17.7522 23.4225V18.585H12.6222L10.2822 16.245C11.5887 15.7408 12.9769 15.4815 14.3772 15.48C17.3922 15.48 20.2047 16.65 22.3422 18.765L25.5147 21.9375L25.0647 22.3875C24.4994 22.9583 23.8266 23.4112 23.085 23.7202C22.3435 24.0292 21.5481 24.188 20.7447 24.1875C19.6872 24.1875 18.6522 23.9175 17.7522 23.4225ZM42.7497 38.25C42.7497 39.4875 41.7372 40.5 40.4997 40.5C39.2622 40.5 38.2497 39.4875 38.2497 38.25V33.75H24.7497V27.9225C26.0322 27.405 27.2247 26.64 28.2597 25.605L28.7097 25.155L35.0772 31.5H38.2497V28.3275L24.7497 14.895V13.5H42.7497V38.25Z" fill="#B04646"/>
</svg>
