<svg width="54" height="54" viewBox="0 0 54 54" fill="none" xmlns="http://www.w3.org/2000/svg">
<path d="M15.0709 8.38892C14.7541 8.38892 14.4503 8.51476 14.2263 8.73876C14.0023 8.96276 13.8765 9.26657 13.8765 9.58336V45.4167C13.8765 45.7335 14.0023 46.0373 14.2263 46.2613C14.4503 46.4853 14.7541 46.6111 15.0709 46.6111C15.3877 46.6111 15.6915 46.4853 15.9155 46.2613C16.1395 46.0373 16.2654 45.7335 16.2654 45.4167V9.58336C16.2654 9.26657 16.1395 8.96276 15.9155 8.73876C15.6915 8.51476 15.3877 8.38892 15.0709 8.38892Z" fill="#B04646"/>
<path d="M44.4306 10.5628C44.249 10.458 44.043 10.4028 43.8333 10.4028C43.6237 10.4028 43.4177 10.458 43.2361 10.5628C40.9206 11.5362 38.4252 12.0084 35.9142 11.9484C33.7508 11.7901 31.6438 11.184 29.7269 10.1686C27.8834 9.1726 25.8545 8.56679 23.7667 8.38892C22.0436 8.3908 20.3382 8.73594 18.75 9.40419V29.8889C20.3062 29.0375 22.0525 28.5937 23.8264 28.5989C25.583 28.7732 27.2878 29.2928 28.8431 30.1278C31.0649 31.288 33.5075 31.9638 36.0097 32.1106C38.8818 32.1702 41.7332 31.6122 44.3708 30.4742C44.5678 30.3749 44.7335 30.2231 44.8494 30.0354C44.9654 29.8478 45.0271 29.6317 45.0278 29.4111V11.5781C45.0245 11.3717 44.9677 11.1696 44.863 10.9917C44.7584 10.8138 44.6094 10.666 44.4306 10.5628Z" fill="#B04646"/>
</svg>
