<svg width="45" height="45" viewBox="0 0 45 45" fill="none" xmlns="http://www.w3.org/2000/svg">
<path d="M0 7.01562C0 5.15496 0.739144 3.37051 2.05483 2.05483C3.37051 0.739144 5.15496 0 7.01562 0H23.8531C25.7138 0 27.4982 0.739144 28.8139 2.05483C30.1296 3.37051 30.8687 5.15496 30.8687 7.01562V11.225H21.0469C18.4419 11.225 15.9437 12.2598 14.1018 14.1018C12.2598 15.9437 11.225 18.4419 11.225 21.0469V30.8687H7.01562C5.15496 30.8687 3.37051 30.1296 2.05483 28.8139C0.739144 27.4982 0 25.7138 0 23.8531V7.01562Z" fill="#B04646"/>
<path d="M21.0469 14.0312C19.1862 14.0313 17.4018 14.7704 16.0861 16.0861C14.7704 17.4018 14.0313 19.1862 14.0312 21.0469V37.8844C14.0313 39.745 14.7704 41.5295 16.0861 42.8452C17.4018 44.1608 19.1862 44.9 21.0469 44.9H37.8844C39.745 44.9 41.5295 44.1608 42.8452 42.8452C44.1608 41.5295 44.9 39.745 44.9 37.8844V21.0469C44.9 19.1862 44.1608 17.4018 42.8452 16.0861C41.5295 14.7704 39.745 14.0313 37.8844 14.0312H21.0469ZM16.8375 21.0469C16.8375 19.9305 17.281 18.8598 18.0704 18.0704C18.8598 17.281 19.9305 16.8375 21.0469 16.8375H37.8844C39.0008 16.8375 40.0714 17.281 40.8608 18.0704C41.6502 18.8598 42.0937 19.9305 42.0937 21.0469V37.8844C42.0937 39.0008 41.6502 40.0714 40.8608 40.8608C40.0714 41.6502 39.0008 42.0937 37.8844 42.0937H21.0469C19.9305 42.0937 18.8598 41.6502 18.0704 40.8608C17.281 40.0714 16.8375 39.0008 16.8375 37.8844V21.0469Z" fill="#B04646"/>
</svg>
