<svg width="41" height="36" viewBox="0 0 41 36" fill="none" xmlns="http://www.w3.org/2000/svg">
<path fill-rule="evenodd" clip-rule="evenodd" d="M15.2548 0C6.83509 0 0 5.11152 0 11.4167C0 17.1687 5.69805 21.9175 13.0991 22.7022L9.95808 28.9661L20.8886 22.0204C26.5197 20.338 30.8466 16.2298 30.8466 11.4167C30.8466 5.11409 23.6771 0 15.2548 0Z" fill="#B04646"/>
<path fill-rule="evenodd" clip-rule="evenodd" d="M40.9999 22.8693C40.9999 19.9779 38.2679 16.9835 35.1115 15.4915C34.2266 20.5078 30.162 25.1254 23.7488 26.9313L20.6953 28.5828C21.8632 29.4575 23.2935 30.1546 24.8987 30.6099L34.2574 35.6803L30.9055 31.1116C36.6087 30.5328 40.9999 27.0702 40.9999 22.8693Z" fill="#B04646"/>
</svg>
