<svg width="22" height="21" viewBox="0 0 22 21" fill="none" xmlns="http://www.w3.org/2000/svg">
<path d="M21.5 19.9017L15.634 14.0357C17.0436 12.3434 17.7466 10.1728 17.5966 7.9754C17.4466 5.77803 16.4552 3.72307 14.8287 2.23803C13.2022 0.752981 11.0657 -0.0478209 8.86381 0.00221076C6.6619 0.0522424 4.56404 0.949256 3.00665 2.50665C1.44926 4.06404 0.552242 6.1619 0.502211 8.36381C0.452179 10.5657 1.25298 12.7022 2.73803 14.3287C4.22307 15.9552 6.27803 16.9466 8.4754 17.0966C10.6728 17.2466 12.8434 16.5436 14.5357 15.134L20.4017 21L21.5 19.9017ZM2.08127 8.57202C2.08127 7.18938 2.49127 5.83779 3.25943 4.68817C4.02758 3.53855 5.11938 2.64253 6.39678 2.11341C7.67417 1.5843 9.07977 1.44586 10.4358 1.7156C11.7919 1.98534 13.0375 2.65114 14.0152 3.62882C14.9929 4.60649 15.6587 5.85212 15.9284 7.20819C16.1982 8.56426 16.0597 9.96987 15.5306 11.2473C15.0015 12.5246 14.1055 13.6165 12.9559 14.3846C11.8062 15.1528 10.4547 15.5628 9.07202 15.5628C7.21859 15.5607 5.44166 14.8235 4.13109 13.5129C2.82051 12.2024 2.08333 10.4254 2.08127 8.57202Z" fill="#1AF8F2"/>
</svg>
