<svg width="68" height="68" viewBox="0 0 68 68" fill="none" xmlns="http://www.w3.org/2000/svg">
<path d="M57.8558 54.5498L42.2739 38.9679C44.6918 35.8419 45.9998 32.0199 45.9998 27.9999C45.9998 23.1879 44.1218 18.676 40.7259 15.274C37.3299 11.872 32.8059 10 27.9999 10C23.1939 10 18.67 11.878 15.274 15.274C11.872 18.67 10 23.1879 10 27.9999C10 32.8059 11.878 37.3299 15.274 40.7259C18.67 44.1278 23.1879 45.9998 27.9999 45.9998C32.0199 45.9998 35.8359 44.6918 38.9619 42.2799L54.5438 57.8558C54.5895 57.9015 54.6437 57.9378 54.7035 57.9625C54.7632 57.9873 54.8272 58 54.8918 58C54.9564 58 55.0204 57.9873 55.0802 57.9625C55.1399 57.9378 55.1941 57.9015 55.2398 57.8558L57.8558 55.2458C57.9015 55.2001 57.9378 55.1459 57.9625 55.0862C57.9873 55.0264 58 54.9624 58 54.8978C58 54.8332 57.9873 54.7692 57.9625 54.7095C57.9378 54.6497 57.9015 54.5955 57.8558 54.5498ZM37.5039 37.5039C34.9599 40.0419 31.5879 41.4399 27.9999 41.4399C24.4119 41.4399 21.04 40.0419 18.496 37.5039C15.958 34.9599 14.56 31.5879 14.56 27.9999C14.56 24.4119 15.958 21.034 18.496 18.496C21.04 15.958 24.4119 14.56 27.9999 14.56C31.5879 14.56 34.9659 15.952 37.5039 18.496C40.0419 21.04 41.4399 24.4119 41.4399 27.9999C41.4399 31.5879 40.0419 34.9659 37.5039 37.5039Z" fill="#B04646"/>
</svg>
