<svg width="47" height="47" viewBox="0 0 47 47" fill="none" xmlns="http://www.w3.org/2000/svg">
<path d="M46.5 23.5C46.5 36.2025 36.2025 46.5 23.5 46.5C10.7975 46.5 0.5 36.2025 0.5 23.5C0.5 10.7975 10.7975 0.5 23.5 0.5C36.2025 0.5 46.5 10.7975 46.5 23.5ZM31.5 16.5C31.5 20.9183 27.9183 24.5 23.5 24.5C19.0817 24.5 15.5 20.9183 15.5 16.5C15.5 12.0817 19.0817 8.5 23.5 8.5C27.9183 8.5 31.5 12.0817 31.5 16.5ZM23.5 25.5C28.4706 25.5 32.5 21.4706 32.5 16.5C32.5 11.5294 28.4706 7.5 23.5 7.5C18.5294 7.5 14.5 11.5294 14.5 16.5C14.5 21.4706 18.5294 25.5 23.5 25.5Z" stroke="white"/>
</svg>
