<svg width="25" height="25" viewBox="0 0 25 25" fill="none" xmlns="http://www.w3.org/2000/svg">
<path d="M12.5 24.5C8.68701 24.5 5.28938 22.7216 3.09131 19.949C4.98338 17.8867 8.4609 16.4574 12.5 16.4574C16.5391 16.4574 20.0166 17.8867 21.9087 19.949C19.7106 22.7216 16.313 24.5 12.5 24.5ZM22.5068 19.1253C20.3559 16.89 16.6507 15.4574 12.5 15.4574C8.34929 15.4574 4.64414 16.89 2.49319 19.1253C1.23366 17.2268 0.5 14.9491 0.5 12.5C0.5 5.87258 5.87258 0.5 12.5 0.5C19.1274 0.5 24.5 5.87258 24.5 12.5C24.5 14.9491 23.7663 17.2268 22.5068 19.1253ZM16.5213 8.7766C16.5213 10.9975 14.7209 12.7979 12.5 12.7979C10.2791 12.7979 8.47872 10.9975 8.47872 8.7766C8.47872 6.55571 10.2791 4.75532 12.5 4.75532C14.7209 4.75532 16.5213 6.55571 16.5213 8.7766ZM12.5 13.7979C15.2732 13.7979 17.5213 11.5498 17.5213 8.7766C17.5213 6.00342 15.2732 3.75532 12.5 3.75532C9.72683 3.75532 7.47872 6.00342 7.47872 8.7766C7.47872 11.5498 9.72683 13.7979 12.5 13.7979Z" stroke="white"/>
</svg>
